<svg id="visual" viewBox="0 0 1920 750" width="1920" height="750" xmlns="http://www.w3.org/2000/svg" xmlns:xlink="http://www.w3.org/1999/xlink" version="1.1"><rect x="0" y="0" width="1920" height="750" fill="#F2F2E9"></rect><path d="M0 614L80 621.8C160 629.7 320 645.3 480 640.5C640 635.7 800 610.3 960 618.5C1120 626.7 1280 668.3 1440 626.2C1600 584 1760 458 1840 395L1920 332L1920 751L1840 751C1760 751 1600 751 1440 751C1280 751 1120 751 960 751C800 751 640 751 480 751C320 751 160 751 80 751L0 751Z" fill="#CDE6C7" stroke-linecap="round" stroke-linejoin="miter"></path></svg>