<?xml version="1.0" standalone="no"?>
<svg xmlns:xlink="http://www.w3.org/1999/xlink" id="wave" style="transform:rotate(0deg); transition: 0.3s" viewBox="0 0 1440 290" version="1.1" xmlns="http://www.w3.org/2000/svg"><defs><linearGradient id="sw-gradient-0" x1="0" x2="0" y1="1" y2="0"><stop stop-color="rgba(205, 230, 199, 1)" offset="0%"/><stop stop-color="rgba(242, 242, 233, 1)" offset="100%"/></linearGradient></defs><path style="transform:translate(0, 0px); opacity:1" fill="url(#sw-gradient-0)" d="M0,261L60,241.7C120,222,240,184,360,178.8C480,174,600,203,720,188.5C840,174,960,116,1080,77.3C1200,39,1320,19,1440,29C1560,39,1680,77,1800,106.3C1920,135,2040,155,2160,135.3C2280,116,2400,58,2520,38.7C2640,19,2760,39,2880,67.7C3000,97,3120,135,3240,149.8C3360,164,3480,155,3600,154.7C3720,155,3840,164,3960,183.7C4080,203,4200,232,4320,212.7C4440,193,4560,126,4680,91.8C4800,58,4920,58,5040,72.5C5160,87,5280,116,5400,149.8C5520,184,5640,222,5760,236.8C5880,251,6000,242,6120,203C6240,164,6360,97,6480,82.2C6600,68,6720,106,6840,135.3C6960,164,7080,184,7200,203C7320,222,7440,242,7560,222.3C7680,203,7800,145,7920,125.7C8040,106,8160,126,8280,149.8C8400,174,8520,203,8580,217.5L8640,232L8640,290L8580,290C8520,290,8400,290,8280,290C8160,290,8040,290,7920,290C7800,290,7680,290,7560,290C7440,290,7320,290,7200,290C7080,290,6960,290,6840,290C6720,290,6600,290,6480,290C6360,290,6240,290,6120,290C6000,290,5880,290,5760,290C5640,290,5520,290,5400,290C5280,290,5160,290,5040,290C4920,290,4800,290,4680,290C4560,290,4440,290,4320,290C4200,290,4080,290,3960,290C3840,290,3720,290,3600,290C3480,290,3360,290,3240,290C3120,290,3000,290,2880,290C2760,290,2640,290,2520,290C2400,290,2280,290,2160,290C2040,290,1920,290,1800,290C1680,290,1560,290,1440,290C1320,290,1200,290,1080,290C960,290,840,290,720,290C600,290,480,290,360,290C240,290,120,290,60,290L0,290Z"/></svg>